<?xml version="1.0" standalone="no"?>
<!DOCTYPE svg PUBLIC "-//W3C//DTD SVG 20010904//EN"
 "http://www.w3.org/TR/2001/REC-SVG-20010904/DTD/svg10.dtd">
<svg version="1.0" xmlns="http://www.w3.org/2000/svg"
 width="360.000000pt" height="360.000000pt" viewBox="0 0 360.000000 360.000000"
 preserveAspectRatio="xMidYMid meet">
<metadata>
Created by potrace 1.14, written by Peter Selinger 2001-2017
</metadata>
<g transform="translate(0.000000,360.000000) scale(0.100000,-0.100000)"
fill="#000000" stroke="none">
<path d="M1917 3479 c-10 -6 -25 -8 -32 -5 -8 3 -14 0 -12 -6 1 -7 -2 -13 -8
-13 -26 -2 -55 -17 -50 -26 4 -5 -1 -9 -9 -9 -9 0 -16 -5 -16 -11 0 -5 -4 -7
-10 -4 -5 3 -10 0 -10 -7 0 -7 -7 -22 -15 -32 -14 -19 -15 -19 -35 4 -11 13
-20 27 -20 32 0 5 -4 7 -10 3 -5 -3 -18 3 -29 14 -11 11 -22 17 -25 14 -3 -4
-14 1 -24 10 -10 10 -21 14 -24 11 -4 -3 -16 0 -28 6 -18 10 -21 10 -14 -2 6
-10 5 -11 -7 -1 -16 13 -84 21 -95 11 -3 -4 -17 -3 -30 2 -16 6 -23 6 -21 -1
1 -6 -10 -12 -25 -14 -14 -2 -38 -11 -52 -20 -14 -10 -26 -14 -26 -11 0 4 -20
-14 -45 -38 -25 -25 -45 -50 -45 -56 0 -6 -5 -8 -12 -4 -8 5 -9 2 -5 -9 3 -10
3 -17 -2 -17 -8 0 -12 -10 -28 -60 -2 -8 -5 -21 -5 -27 -1 -7 -4 -13 -8 -13
-3 0 -6 -23 -6 -50 1 -28 -3 -50 -9 -50 -5 0 -5 -4 1 -8 7 -4 12 -20 12 -37 0
-16 3 -41 7 -55 3 -14 7 -30 7 -37 1 -7 7 -14 14 -17 7 -3 11 -14 9 -26 -2
-11 0 -20 5 -20 4 0 19 -19 33 -42 26 -45 76 -107 115 -144 12 -12 22 -26 22
-33 0 -6 4 -10 8 -8 5 1 25 -15 45 -36 20 -20 37 -35 37 -31 0 3 14 -8 30 -26
17 -18 30 -29 30 -25 0 5 13 -6 29 -23 16 -16 31 -28 33 -26 3 2 20 -10 38
-26 19 -17 37 -30 40 -30 6 0 22 -12 67 -50 7 -5 17 -10 22 -10 6 0 14 -7 19
-15 7 -13 14 -14 36 -5 15 5 24 15 21 20 -4 6 -2 9 3 8 10 -3 75 45 114 85 10
9 18 15 18 13 0 -3 23 17 52 44 29 27 56 46 62 43 5 -3 6 -1 2 5 -4 7 -1 12 8
12 9 0 15 4 13 8 -1 5 20 29 47 55 27 26 45 47 42 47 -4 0 4 10 17 23 13 12
35 39 49 59 13 21 28 35 32 30 4 -4 7 -2 6 3 -5 21 0 36 10 30 6 -4 10 -3 9 2
-3 14 34 93 41 88 4 -3 7 3 7 13 0 32 3 43 11 39 4 -3 6 12 6 34 -1 21 1 39 5
39 4 0 8 7 8 15 0 8 -4 15 -9 15 -5 0 -4 8 1 19 6 10 7 21 4 25 -4 4 -9 17
-11 29 -5 29 -10 51 -12 55 -2 1 -3 5 -4 10 -4 23 -30 72 -38 72 -5 0 -7 4 -4
9 7 11 -87 108 -114 116 -11 4 -17 11 -14 17 4 6 2 8 -4 4 -6 -3 -13 -2 -17 4
-3 5 -17 10 -31 10 -13 0 -24 6 -24 13 0 8 -4 7 -10 -3 -6 -10 -10 -11 -10 -2
0 15 -126 16 -153 1z"/>
<path d="M645 3201 c6 -11 4 -13 -9 -8 -9 4 -14 3 -11 -2 3 -5 -3 -12 -13 -15
-19 -6 -55 -60 -46 -69 3 -3 2 -11 -2 -18 -9 -16 -12 -59 -3 -59 3 0 6 -7 6
-15 0 -8 -4 -15 -9 -15 -5 0 -6 -6 -1 -12 10 -16 11 -30 3 -43 -3 -5 -6 -50
-5 -100 0 -52 -4 -93 -10 -97 -7 -5 -7 -8 1 -8 6 0 8 -19 4 -55 -3 -31 -2 -55
3 -55 5 0 5 -6 -2 -13 -8 -10 -7 -17 2 -27 6 -7 7 -10 1 -7 -7 4 -11 -7 -10
-33 0 -22 5 -40 11 -40 5 0 4 -4 -2 -8 -9 -6 -12 -43 -9 -137 2 -72 5 -137 8
-145 15 -44 50 -110 60 -110 5 0 7 -8 4 -17 -4 -10 -4 -15 -1 -11 10 10 55
-33 48 -45 -3 -6 -1 -7 5 -3 6 3 15 -2 21 -11 6 -10 11 -14 11 -10 0 4 15 -8
32 -28 18 -19 39 -35 46 -35 7 0 10 -4 7 -10 -3 -5 -2 -10 3 -10 5 0 28 -18
51 -40 22 -22 44 -40 47 -40 11 0 33 -28 27 -34 -4 -3 0 -6 7 -6 7 0 28 -16
47 -35 20 -20 39 -32 46 -29 7 4 9 4 5 0 -6 -7 34 -56 46 -56 3 0 30 -24 59
-52 61 -60 87 -82 116 -97 11 -6 23 -20 26 -31 3 -11 13 -20 21 -20 8 0 14 -4
14 -10 0 -5 9 -10 21 -10 11 0 18 -4 15 -9 -3 -4 4 -8 17 -7 14 1 21 -4 19
-13 -3 -12 0 -12 12 -1 9 7 16 8 16 3 0 -5 14 -9 30 -8 17 0 30 3 30 8 0 4 10
3 21 -4 15 -8 19 -8 15 0 -7 10 -2 12 37 15 6 1 18 9 25 19 7 9 20 17 28 17 8
0 14 7 14 16 0 8 5 12 10 9 6 -3 14 5 20 19 5 14 14 26 20 26 6 0 9 4 6 9 -7
11 4 42 13 37 3 -2 5 16 4 40 -1 28 2 44 10 44 8 0 8 3 2 8 -15 11 -17 32 -3
32 10 0 10 2 0 9 -8 4 -14 12 -14 16 0 4 6 12 14 16 11 7 11 9 -1 9 -11 0 -11
3 -1 15 10 12 10 15 -1 15 -12 0 -12 2 -1 9 17 11 18 12 4 37 -6 12 -7 26 -2
34 6 9 5 17 -3 22 -9 6 -8 8 2 8 11 0 11 3 0 17 -12 15 -12 16 1 8 13 -8 13
-7 1 8 -11 14 -11 17 0 17 9 0 10 3 3 8 -10 6 -24 59 -27 107 -1 11 -9 25 -17
32 -8 7 -11 13 -6 13 6 0 1 7 -10 16 -10 8 -13 13 -6 9 7 -4 1 13 -13 37 -14
24 -28 51 -32 60 -3 10 -13 20 -24 23 -11 4 -16 12 -12 21 3 7 1 14 -5 14 -11
0 -81 67 -76 73 2 2 -7 10 -21 17 -13 7 -27 21 -30 31 -4 10 -12 18 -18 16 -7
-1 -11 4 -10 11 2 6 -2 12 -7 12 -6 0 -38 28 -72 63 -34 34 -65 61 -70 60 -4
-2 -7 2 -5 8 1 6 -7 16 -18 22 -11 7 -23 16 -26 21 -4 5 -14 6 -22 3 -9 -3
-18 -1 -21 6 -3 9 -5 8 -5 -1 -1 -7 -5 -11 -9 -8 -5 3 -21 -5 -36 -17 -37 -30
-43 -85 -13 -135 11 -20 24 -39 28 -42 3 -3 9 -15 13 -28 4 -12 11 -20 16 -17
5 3 7 -3 5 -15 -2 -11 1 -19 8 -17 7 1 11 -4 10 -10 -2 -7 2 -13 7 -13 6 0 10
-9 10 -21 0 -11 5 -17 10 -14 6 3 10 -1 10 -10 0 -9 9 -25 20 -37 11 -12 20
-28 20 -35 0 -7 4 -13 8 -13 5 0 9 -7 9 -16 0 -14 -2 -14 -14 2 -7 10 -13 14
-13 9 0 -4 -8 2 -19 13 -10 12 -23 22 -30 22 -6 0 -11 5 -11 10 0 6 -6 10 -14
10 -8 0 -17 7 -20 16 -3 8 -10 13 -14 10 -5 -3 -15 4 -22 15 -8 10 -20 19 -26
19 -7 0 -15 7 -18 16 -3 8 -10 13 -14 10 -5 -3 -14 4 -22 14 -8 10 -17 17 -21
14 -5 -2 -13 5 -19 16 -6 11 -15 18 -20 15 -5 -3 -11 4 -15 14 -3 11 -15 23
-26 26 -10 4 -19 12 -19 19 0 7 -8 21 -17 32 -16 18 -21 29 -26 59 -1 5 -8 16
-15 24 -11 11 -11 15 0 22 11 7 11 9 -1 9 -7 0 -11 6 -7 15 3 8 1 15 -3 15 -5
0 -8 22 -7 49 1 29 -3 47 -8 44 -5 -4 -6 1 -2 12 4 11 2 22 -6 27 -11 6 -11 8
0 8 9 0 10 5 4 18 -5 9 -8 27 -6 40 3 14 0 21 -6 17 -5 -3 -7 0 -4 8 2 7 1 39
-4 70 -5 31 -5 62 -1 69 4 7 3 18 -3 26 -6 7 -12 27 -13 45 -1 18 -6 42 -13
53 -6 12 -9 24 -6 27 6 5 -56 31 -70 28 -4 -1 -15 4 -24 11 -13 11 -14 11 -7
-1z"/>
<path d="M2822 3111 c-18 -9 -30 -20 -26 -24 4 -4 2 -7 -5 -7 -7 0 -9 -4 -6
-10 3 -5 2 -10 -2 -10 -8 0 -14 -28 -17 -77 0 -13 -4 -23 -8 -23 -3 0 -5 -11
-3 -25 1 -14 -2 -25 -7 -25 -5 0 -6 -10 -3 -21 5 -15 4 -19 -5 -14 -9 6 -9 2
0 -15 8 -15 8 -20 1 -16 -9 6 -17 -44 -12 -76 0 -5 -3 -8 -7 -8 -5 0 -8 -18
-7 -39 1 -22 -2 -38 -7 -35 -4 3 -9 -9 -9 -25 -2 -43 -3 -48 -11 -57 -11 -11
-10 -26 2 -19 5 3 3 -7 -5 -21 -8 -15 -11 -32 -8 -37 3 -6 1 -7 -5 -3 -7 4
-12 1 -12 -8 0 -27 -8 -41 -52 -87 -9 -9 -14 -20 -10 -23 3 -3 -2 -6 -12 -6
-9 0 -14 -4 -11 -10 3 -5 1 -10 -4 -10 -6 0 -22 -10 -35 -21 -25 -22 -45 -34
-103 -65 -18 -10 -29 -22 -26 -27 4 -6 -1 -8 -11 -4 -10 4 -19 1 -22 -8 -4 -8
-12 -15 -20 -15 -8 0 -14 -5 -14 -12 0 -6 -3 -9 -6 -5 -3 3 -18 -5 -33 -19
-14 -13 -31 -22 -38 -20 -6 3 -14 0 -16 -7 -2 -7 -8 -9 -12 -4 -5 4 1 16 13
27 12 12 22 25 22 31 0 6 5 7 12 3 6 -4 8 -3 4 4 -3 6 1 17 9 25 8 9 15 21 15
28 0 7 3 9 7 6 3 -4 13 6 21 21 8 15 20 36 26 48 6 12 18 28 26 37 32 35 41
47 33 47 -4 0 1 6 12 13 10 8 15 19 11 25 -4 7 -3 12 3 12 6 0 6 11 1 29 -4
16 -6 32 -2 35 3 3 -1 6 -9 6 -8 0 -19 8 -26 19 -9 14 -22 18 -50 16 -44 -3
-73 -13 -73 -26 0 -5 -11 -14 -25 -21 -13 -6 -22 -15 -19 -19 3 -5 0 -9 -6 -9
-7 0 -25 -14 -41 -31 -16 -17 -29 -29 -29 -25 0 3 -14 -8 -30 -24 -17 -17 -35
-30 -41 -30 -6 0 -7 -4 -4 -10 6 -9 -8 -14 -28 -11 -5 1 -7 -2 -4 -6 3 -7 -58
-72 -79 -83 -19 -10 -82 -79 -76 -84 3 -3 0 -6 -7 -6 -7 0 -9 -4 -6 -10 3 -5
-1 -10 -9 -10 -10 0 -13 -6 -9 -17 4 -11 3 -14 -5 -9 -11 6 -17 -5 -13 -26 0
-5 -4 -8 -9 -8 -5 0 -9 -3 -8 -7 1 -5 -6 -22 -15 -40 -9 -18 -17 -39 -17 -48
0 -8 -3 -15 -7 -15 -5 0 -9 -17 -11 -37 -1 -20 -7 -42 -13 -50 -9 -10 -8 -13
1 -13 9 0 10 -3 1 -13 -8 -10 -7 -17 2 -27 6 -7 7 -10 1 -7 -17 10 -13 -295 5
-316 7 -10 10 -17 7 -17 -4 0 2 -10 13 -22 11 -11 18 -25 15 -30 -3 -4 2 -8
10 -8 9 0 16 -4 16 -8 0 -5 19 -19 43 -31 44 -25 186 -44 174 -24 -4 6 4 9 18
7 15 -1 29 4 35 14 5 10 10 13 10 9 0 -5 14 1 30 13 17 12 27 27 24 33 -4 7
-3 9 1 4 5 -4 17 0 27 10 10 9 18 13 18 9 0 -4 11 4 24 18 13 15 28 26 35 26
6 0 11 7 11 16 0 8 4 13 9 9 5 -3 25 10 45 29 20 18 36 32 36 30 0 -3 24 15
54 41 6 6 29 23 51 40 22 16 45 34 51 40 7 5 24 19 40 30 15 11 33 26 40 33 7
6 15 12 19 12 3 0 16 11 29 25 13 14 28 25 34 25 5 0 12 7 16 15 3 8 10 15 16
15 10 0 53 33 78 62 9 9 20 14 26 11 6 -3 8 -3 4 1 -9 11 14 36 26 28 5 -3 6
0 2 6 -3 6 4 21 16 33 13 12 16 19 8 15 -8 -4 -7 -1 3 7 10 9 18 18 18 21 -3
27 1 46 8 42 5 -3 7 8 6 24 -1 17 0 30 4 30 7 0 10 65 14 252 1 48 5 90 9 94
4 3 3 15 -2 25 -7 11 -7 20 0 24 6 4 6 15 0 30 -6 16 -6 25 1 25 6 0 6 8 -2
21 -8 16 -8 20 1 14 9 -6 9 -2 1 14 -7 11 -8 21 -3 21 4 0 8 9 9 20 1 13 -2
18 -9 14 -7 -5 -8 -2 -2 7 13 21 13 63 0 71 -8 6 -7 8 2 8 9 0 12 28 12 108 0
105 -1 108 -27 130 -16 12 -32 22 -37 21 -5 0 -12 5 -17 12 -6 10 -11 10 -25
-2 -11 -9 -15 -9 -10 -1 8 14 10 14 -32 -7z"/>
<path d="M2558 1207 c-39 -22 -58 -38 -58 -51 0 -16 3 -17 12 -8 17 17 28 15
28 -6 0 -10 5 -23 10 -28 13 -13 4 -40 -16 -48 -12 -5 -19 11 -15 36 0 4 -5 5
-12 3 -10 -4 -13 -38 -8 -87 2 -11 39 3 62 25 13 12 33 20 45 19 33 -5 52 59
31 103 -6 10 -10 32 -9 47 0 15 -2 28 -6 27 -4 0 -33 -15 -64 -32z m42 -57 c0
-11 -4 -20 -9 -20 -14 0 -23 18 -16 30 10 17 25 11 25 -10z"/>
<path d="M233 1199 c-12 -4 -29 -20 -39 -34 -16 -25 -16 -27 5 -49 l22 -23
-40 -30 c-25 -19 -37 -33 -32 -41 5 -9 21 -1 52 27 34 30 49 37 61 30 24 -14
34 9 12 26 -15 11 -17 16 -6 26 6 7 12 23 12 35 0 29 -20 44 -47 33z m17 -33
c0 -15 -14 -35 -21 -30 -15 9 -10 34 6 34 8 0 15 -2 15 -4z"/>
<path d="M2095 1200 c-33 -13 -58 -46 -50 -69 3 -12 11 -21 16 -21 11 0 12
-30 2 -30 -18 -1 -65 -49 -58 -59 4 -8 21 0 51 24 25 20 51 35 58 32 21 -8 38
14 21 27 -13 9 -13 16 -3 43 10 27 10 35 -2 47 -10 9 -22 11 -35 6z m8 -44 c6
-16 -2 -28 -14 -20 -12 7 -11 34 0 34 5 0 11 -6 14 -14z"/>
<path d="M3343 1102 c-35 -19 -63 -42 -63 -49 0 -18 3 -17 70 18 41 21 60 37
60 50 0 10 -1 19 -2 18 -2 -1 -31 -17 -65 -37z"/>
<path d="M1603 1098 c-29 -16 -53 -36 -53 -44 0 -19 4 -18 71 17 32 18 59 38
59 45 0 20 -18 16 -77 -18z"/>
<path d="M2776 1023 c-10 -10 -7 -53 4 -53 6 0 10 3 11 8 0 4 2 15 4 24 3 19
-8 32 -19 21z"/>
<path d="M471 988 c-12 -35 -7 -48 19 -48 10 0 22 -4 25 -10 11 -17 21 -11 38
24 l16 34 -44 15 -44 15 -10 -30z"/>
<path d="M1134 968 l-31 -33 1 -192 c1 -142 4 -195 14 -205 17 -17 167 -19
207 -3 22 8 38 9 55 2 32 -13 529 -18 553 -5 10 5 17 5 17 0 0 -10 315 -11
325 -1 13 13 12 95 -2 148 -13 50 -48 131 -57 131 -2 0 -15 -18 -29 -39 l-26
-40 25 -45 c14 -25 23 -49 21 -53 -3 -5 -45 -8 -94 -7 -138 2 -128 -1 -129 41
-1 31 -9 44 -46 78 -25 23 -64 47 -87 53 -50 15 -74 5 -171 -73 -126 -101
-135 -104 -252 -97 -25 2 -26 4 -17 34 5 18 9 48 9 67 l0 35 -30 -29 c-23 -22
-30 -38 -30 -67 0 -29 -4 -38 -17 -39 -111 -5 -156 -3 -163 6 -5 7 -11 91 -12
189 l-3 177 -31 -33z m731 -277 c51 -23 73 -47 57 -63 -13 -13 -229 -20 -270
-9 -25 7 -25 7 13 39 61 50 136 62 200 33z"/>
<path d="M1731 964 c-7 -19 -11 -36 -9 -38 10 -6 79 -36 83 -36 6 0 36 72 33
75 -5 5 -81 35 -87 35 -4 0 -13 -16 -20 -36z"/>
<path d="M3161 958 c-17 -23 -31 -44 -32 -47 -1 -9 -1 -395 0 -406 1 -5 16 12
34 39 l32 50 0 203 c0 112 -1 203 -2 203 0 0 -15 -19 -32 -42z"/>
<path d="M2851 971 c-7 -5 -11 -13 -7 -19 9 -14 -4 -42 -19 -42 -7 0 -15 9
-18 21 -7 26 -27 16 -27 -14 -1 -51 -32 -60 -42 -12 -5 18 -6 18 -13 2 -10
-23 1 -63 20 -71 10 -3 25 3 38 17 13 13 32 21 45 19 16 -3 25 4 32 24 15 39
9 86 -9 75z"/>
<path d="M2974 863 c-10 -15 -23 -31 -28 -34 -5 -4 -6 -33 -2 -65 4 -33 9 -79
12 -103 l5 -44 -36 6 c-54 9 -63 21 -71 95 -4 37 -10 76 -14 86 -6 17 -9 16
-30 -13 -20 -29 -22 -41 -17 -102 3 -39 2 -70 -4 -70 -5 -1 -15 -2 -21 -3 -23
-3 -57 16 -63 35 -4 11 -12 52 -19 91 l-12 73 -21 -35 c-12 -19 -25 -38 -30
-42 -4 -4 -27 -23 -50 -43 -48 -41 -72 -97 -53 -120 14 -17 68 -45 86 -45 8 0
22 16 32 37 l19 36 11 -31 c11 -34 39 -52 87 -59 27 -4 33 1 52 34 l22 38 10
-27 c8 -22 19 -28 63 -35 70 -12 88 -5 108 47 19 49 19 88 -6 279 -6 46 -9 48
-30 14z m-323 -175 c0 -7 2 -21 4 -30 4 -22 -21 -31 -47 -17 -20 11 -20 11 3
35 25 27 39 31 40 12z"/>
<path d="M465 849 c-19 -17 -35 -37 -35 -45 0 -8 -4 -14 -9 -14 -13 0 -34 -66
-27 -87 6 -17 33 -36 100 -71 19 -10 24 -17 16 -22 -7 -4 -91 -7 -189 -6 -167
1 -178 2 -218 25 -38 22 -43 29 -48 70 -9 67 -10 68 -25 41 -18 -32 -22 -135
-7 -169 14 -32 22 -38 70 -52 38 -10 331 -13 417 -3 25 2 92 6 150 8 95 4 220
14 260 22 8 1 23 3 32 3 11 1 28 21 43 50 l25 49 -53 -4 c-28 -3 -58 -7 -65
-10 -29 -9 -132 84 -132 120 0 7 82 19 115 17 16 -1 37 -9 47 -18 34 -30 21
10 -18 55 -30 35 -42 42 -72 42 -72 0 -162 -90 -147 -147 3 -15 15 -38 25 -53
l18 -25 -52 1 c-28 1 -56 2 -62 3 -6 0 -11 27 -12 61 -1 65 -25 130 -61 168
-29 29 -44 28 -86 -9z m57 -56 c17 -22 38 -69 38 -88 0 -11 -12 -8 -47 11 -73
40 -80 49 -58 74 22 25 47 26 67 3z"/>
<path d="M3414 825 c-52 -52 -93 -207 -62 -233 20 -16 99 -42 131 -42 15 0 27
-3 27 -7 0 -18 -40 -66 -71 -87 -77 -53 -158 -63 -236 -30 -43 17 -43 1 1 -42
55 -53 113 -78 177 -75 62 3 166 141 185 246 19 105 -3 208 -56 265 -34 37
-63 38 -96 5z m67 -116 c44 -47 39 -62 -18 -53 -72 10 -91 34 -57 68 23 24 43
20 75 -15z"/>
<path d="M2057 432 c-23 -25 -22 -31 10 -58 l28 -24 22 26 22 26 28 -26 28
-26 24 26 24 26 -26 24 c-32 29 -42 30 -61 3 l-15 -21 -29 21 c-36 25 -35 25
-55 3z"/>
<path d="M756 232 c-3 -6 -30 -24 -60 -40 -47 -27 -74 -57 -63 -69 6 -5 123
66 138 83 8 10 9 18 2 25 -7 7 -13 7 -17 1z"/>
</g>
</svg>
