<svg aria-hidden="true" style="position: absolute; width: 0; height: 0; overflow: hidden;" version="1.1" xmlns="http://www.w3.org/2000/svg" xmlns:xlink="http://www.w3.org/1999/xlink">
<defs>
<symbol id="icon-add" viewBox="0 0 32 32">
<path  d="M3.999 19.999h8.002v8.002c0 2.21 1.791 4.001 4.001 4.001s4.001-1.791 4.001-4.001v0-8.002h8.002c2.209 0 3.999-1.79 3.999-3.999s-1.79-3.999-3.999-3.999h-7.998v-8.002c0-2.209-1.79-3.999-3.999-3.999s-3.999 1.79-3.999 3.999v0 8.002h-7.998c-2.21 0-4.001 1.791-4.001 4.001s1.791 4.001 4.001 4.001v0z"></path>
</symbol>
<symbol id="icon-about" viewBox="0 0 32 32">
<path  d="M14.188 10.441c0.061 0.128 0.119 0.233 0.182 0.335l-0.008-0.013c0.057 0.087 0.147 0.175 0.204 0.264 0.090 0.094 0.185 0.181 0.286 0.26l0.006 0.004c0.099 0.078 0.217 0.138 0.345 0.173l0.007 0.002c0.11 0.053 0.239 0.094 0.373 0.116l0.008 0.001c0.099 0.019 0.213 0.031 0.33 0.031 0.018 0 0.036-0 0.054-0.001l-0.003 0c0.018 0.001 0.039 0.001 0.060 0.001 0.113 0 0.223-0.011 0.33-0.033l-0.011 0.002c0.121-0.023 0.229-0.064 0.327-0.12l-0.005 0.003h0.030c0.135-0.063 0.25-0.131 0.358-0.209l-0.006 0.004c0.098-0.071 0.185-0.146 0.264-0.229l0.001-0.001 0.030-0.030c0.075-0.078 0.142-0.165 0.201-0.257l0.004-0.007c0.063-0.083 0.113-0.18 0.145-0.285l0.002-0.007c0-0.030 0-0.030 0.030-0.057 0.048-0.109 0.088-0.237 0.115-0.369l0.002-0.012c0.019-0.114 0.029-0.246 0.029-0.38s-0.011-0.266-0.031-0.394l0.002 0.014c-0.034-0.149-0.075-0.277-0.124-0.4l0.006 0.018c-0.087-0.204-0.206-0.379-0.352-0.526l-0.057-0.057c-0.087-0.080-0.183-0.156-0.283-0.224l-0.009-0.006c-0.117-0.057-0.204-0.117-0.322-0.175-0.101-0.048-0.218-0.088-0.341-0.115l-0.011-0.002c-0.099-0.019-0.213-0.031-0.33-0.031-0.017 0-0.034 0-0.052 0.001l0.003-0c-0.018-0.001-0.040-0.001-0.061-0.001-0.113 0-0.224 0.011-0.331 0.033l0.011-0.002c-0.133 0.029-0.251 0.069-0.361 0.121l0.010-0.004h-0.030c-0.128 0.060-0.233 0.119-0.335 0.182l0.013-0.008c-0.109 0.074-0.204 0.15-0.294 0.231l0.002-0.002c-0.083 0.080-0.159 0.166-0.226 0.259l-0.004 0.005c-0.056 0.088-0.114 0.194-0.166 0.302l-0.008 0.019c-0.048 0.101-0.088 0.218-0.115 0.341l-0.002 0.011c-0.019 0.099-0.031 0.214-0.031 0.331 0 0.018 0 0.036 0.001 0.053l-0-0.003c-0.001 0.018-0.001 0.040-0.001 0.061 0 0.113 0.011 0.224 0.033 0.331l-0.002-0.011c0.025 0.174 0.063 0.329 0.113 0.478l-0.005-0.019z"></path>
<path  d="M18.251 21.148h-0.671v-7.167c0-0.001 0-0.003 0-0.005 0-0.417-0.338-0.756-0.756-0.756-0.002 0-0.003 0-0.005 0h-3.071c-0.001 0-0.003 0-0.005 0-0.417 0-0.756 0.338-0.756 0.756 0 0.002 0 0.003 0 0.005v-0 1.58c0 0.001 0 0.003 0 0.005 0 0.417 0.338 0.756 0.756 0.756 0.002 0 0.003 0 0.005 0h0.613v4.856h-0.613c-0.001 0-0.003 0-0.005 0-0.417 0-0.756 0.338-0.756 0.756 0 0.002 0 0.003 0 0.005v-0 1.58c0 0.001 0 0.003 0 0.005 0 0.417 0.338 0.756 0.756 0.756 0.002 0 0.003 0 0.005 0h4.505c0.001 0 0.003 0 0.005 0 0.417 0 0.756-0.338 0.756-0.756 0-0.002 0-0.003 0-0.005v0-1.58c0-0.003 0-0.006 0-0.009 0-0.425-0.339-0.771-0.762-0.781l-0.001-0z"></path>
<path  d="M16 0c-8.837 0-16 7.163-16 16s7.163 16 16 16c8.837 0 16-7.163 16-16v0c-0.001-8.836-7.164-15.999-16-16h-0zM16 29.893c-7.673 0-13.893-6.22-13.893-13.893s6.22-13.893 13.893-13.893c7.673 0 13.893 6.22 13.893 13.893v0c-0.008 7.67-6.223 13.886-13.893 13.893h-0.001z"></path>
</symbol>
<symbol id="icon-contactus" viewBox="0 0 32 32">
<path  d="M4.64 4.64c2.769-2.866 6.648-4.646 10.942-4.646 0.147 0 0.293 0.002 0.439 0.006l-0.021-0c0.048-0.001 0.104-0.001 0.16-0.001 4.374 0 8.334 1.774 11.199 4.641l0 0c2.867 2.733 4.649 6.581 4.649 10.846 0 0.181-0.003 0.361-0.010 0.54l0.001-0.026c0.001 0.047 0.001 0.103 0.001 0.16 0 4.374-1.774 8.334-4.641 11.2l-0 0c-2.733 2.867-6.581 4.649-10.846 4.649-0.181 0-0.361-0.003-0.54-0.010l0.026 0.001c-0.047 0.001-0.103 0.001-0.16 0.001-4.374 0-8.334-1.774-11.2-4.641l-0-0c-2.867-2.733-4.649-6.581-4.649-10.846 0-0.181 0.003-0.361 0.010-0.54l-0.001 0.026c-0.001-0.080-0.002-0.174-0.002-0.268 0-4.34 1.776-8.266 4.641-11.090l0.002-0.002zM7.041 24.959c2.257 2.368 5.435 3.841 8.958 3.841 0 0 0.001 0 0.001 0h-0c0.033 0 0.071 0 0.11 0 3.488 0 6.633-1.475 8.843-3.835l0.006-0.007c2.308-2.296 3.761-5.451 3.838-8.944l0-0.015c0-0.033 0.001-0.073 0.001-0.112 0-3.487-1.474-6.631-3.833-8.841l-0.007-0.006c-2.296-2.309-5.451-3.762-8.944-3.841l-0.015-0c-0.033-0-0.071-0.001-0.11-0.001-3.488 0-6.633 1.475-8.843 3.835l-0.006 0.007c-2.309 2.296-3.762 5.451-3.841 8.944l-0 0.015c0.001 3.524 1.477 6.703 3.842 8.954l0.005 0.005zM11.52 8.16c1.128-1.44 2.867-2.357 4.82-2.357 3.373 0 6.107 2.734 6.107 6.107 0 1.993-0.955 3.764-2.433 4.878l-0.015 0.011c-1.259 0.89-2.14 2.244-2.396 3.807l-0.005 0.034h-3.2c0.020-1.117 0.313-2.161 0.817-3.073l-0.017 0.034c0.369-0.733 0.914-1.33 1.581-1.751l0.018-0.011c0.621-0.399 1.15-0.876 1.591-1.427l0.010-0.013c0.474-0.503 0.773-1.174 0.799-1.915l0-0.005c0-1.767-1.433-3.2-3.2-3.2s-3.2 1.433-3.2 3.2v0h-3.2c0.018-1.712 0.753-3.249 1.919-4.326l0.004-0.004zM14.401 25.439v-3.196h3.2v3.2z"></path>
</symbol>
<symbol id="icon-exit" viewBox="0 0 43 32">
<path  d="M36.352 14.045h-22.661c-1.080 0-1.955 0.875-1.955 1.955s0.875 1.955 1.955 1.955h22.661l-2.53 2.53c-0.354 0.354-0.573 0.843-0.573 1.384 0 1.081 0.876 1.957 1.957 1.957 0.54 0 1.029-0.219 1.383-0.573l5.866-5.869c0.046-0.046 0.087-0.093 0.128-0.142l0.027-0.038c0.030-0.038 0.060-0.076 0.087-0.117l0.022-0.035c0.027-0.041 0.054-0.084 0.076-0.128v-0.027c0.025-0.049 0.049-0.095 0.068-0.147v-0.019c0.022-0.052 0.041-0.106 0.057-0.161v-0.022c0.016-0.054 0.030-0.109 0.041-0.163s0-0.033 0-0.049 0.016-0.093 0.022-0.139c0.006-0.058 0.010-0.126 0.010-0.195s-0.004-0.136-0.011-0.203l0.001 0.008c0-0.049 0-0.095-0.022-0.142s0-0.033 0-0.049-0.025-0.112-0.041-0.166v-0.019c-0.016-0.054-0.035-0.109-0.057-0.163v-0.016c-0.022-0.052-0.044-0.098-0.071-0.147v-0.024c-0.025-0.044-0.052-0.087-0.079-0.131l-0.022-0.035c-0.027-0.041-0.057-0.079-0.087-0.117l-0.027-0.038c-0.041-0.049-0.084-0.098-0.128-0.142l-5.866-5.866c-0.354-0.354-0.843-0.573-1.383-0.573-1.081 0-1.957 0.876-1.957 1.957 0 0.54 0.219 1.029 0.573 1.383v0z"></path>
<path  d="M16 31.997c0.003 0 0.007 0 0.011 0 5.508 0 10.365-2.786 13.24-7.025l0.036-0.056c0.192-0.297 0.306-0.66 0.306-1.050 0-1.080-0.875-1.955-1.955-1.955-0.657 0-1.238 0.324-1.592 0.82l-0.004 0.006c-2.201 3.248-5.873 5.354-10.038 5.354-6.675 0-12.086-5.411-12.086-12.086s5.411-12.086 12.086-12.086c4.154 0 7.819 2.096 9.995 5.288l0.027 0.042c0.361 0.475 0.926 0.779 1.562 0.779 1.080 0 1.955-0.875 1.955-1.955 0-0.37-0.103-0.716-0.281-1.011l0.005 0.009c-2.916-4.28-7.766-7.054-13.265-7.054-8.837 0-16 7.163-16 16s7.163 16 15.999 16h0z"></path>
</symbol>
<symbol id="icon-balance" viewBox="0 0 32 32">
<path  d="M25.132 1.812c-0.983-1.113-2.414-1.812-4.008-1.812-1.858 0-3.494 0.949-4.45 2.388l-0.012 0.020c-0.084 0.118-0.163 0.236-0.237 0.353-0.074-0.117-0.153-0.235-0.237-0.353-0.969-1.459-2.605-2.408-4.462-2.408-1.594 0-3.025 0.699-4.003 1.806l-0.005 0.006c-0.951 1.090-1.53 2.526-1.53 4.096 0 0.027 0 0.054 0 0.081l-0-0.004c0.062 1.945 0.851 3.695 2.102 4.997l-0.002-0.003c1.574 1.697 3.247 3.248 5.028 4.668l0.092 0.071c0.767 0.648 1.561 1.313 2.404 2.048 0.164 0.142 0.379 0.229 0.614 0.229s0.45-0.087 0.615-0.23l-0.001 0.001c0.844-0.731 1.637-1.4 2.404-2.048 1.334-1.125 2.485-2.098 3.485-3.040 1.94-1.831 3.735-3.909 3.735-6.693 0-0.023 0-0.050 0-0.077 0-1.571-0.58-3.006-1.536-4.104l0.006 0.007zM21.64 11.315c-0.961 0.907-2.095 1.864-3.407 2.971-0.584 0.492-1.183 0.998-1.808 1.535-0.626-0.536-1.225-1.042-1.809-1.535-4.087-3.45-6.555-5.533-6.555-8.301-0.006-0.080-0.009-0.173-0.009-0.266 0-2.080 1.652-3.775 3.716-3.843l0.006-0c1.195 0.015 2.243 0.636 2.85 1.569l0.008 0.013c0.368 0.505 0.669 1.089 0.875 1.717l0.013 0.045c0.114 0.398 0.475 0.685 0.903 0.685s0.789-0.287 0.901-0.678l0.002-0.007c0.009-0.034 0.958-3.343 3.751-3.343 2.070 0.068 3.722 1.763 3.722 3.843 0 0.094-0.003 0.187-0.010 0.28l0.001-0.012c-0.004 1.697-0.886 3.191-3.151 5.329z"></path>
<path  d="M29.181 18.878c-0.811 0.001-1.542 0.345-2.056 0.894l-0.001 0.002-2.754 2.957c-0.367-1.155-1.431-1.978-2.686-1.978h-4.33c-0 0-0.001 0-0.001 0-0.632 0-1.209-0.235-1.648-0.623l0.003 0.002c-1.151-1.012-2.67-1.63-4.333-1.63-1.631 0-3.124 0.594-4.273 1.578l0.009-0.008c-0.515-0.725-1.352-1.193-2.298-1.194h-3.875c-0.518 0-0.938 0.42-0.938 0.938v0 11.248c0 0.518 0.42 0.938 0.938 0.938v0h3.874c0 0 0 0 0.001 0 0.841 0 1.596-0.37 2.11-0.957l0.003-0.003 0.555 0.156c1.748 0.511 3.756 0.805 5.833 0.805h8.369c2.139-0.005 4.039-1.027 5.24-2.61l0.012-0.016 4.502-6.002c0.351-0.464 0.563-1.052 0.563-1.688 0-1.554-1.26-2.814-2.814-2.814v0zM5.749 29.187c0 0.518-0.42 0.938-0.938 0.938v0h-2.936v-9.373h2.936c0.518 0 0.938 0.42 0.938 0.938v0zM29.932 22.247v0l-4.502 6.002c-0.866 1.142-2.223 1.872-3.751 1.876h-8.366c-1.896 0-3.73-0.268-5.465-0.769l0.139 0.034-0.367-0.103c0-0.033 0-0.067 0-0.1v-7.075l0.657-0.575c0.822-0.723 1.907-1.164 3.095-1.164s2.273 0.441 3.1 1.168l-0.005-0.005c0.765 0.675 1.776 1.088 2.883 1.088 0 0 0.001 0 0.001 0h4.33c0.518 0 0.938 0.42 0.938 0.938s-0.42 0.938-0.938 0.938v0h-6.659c-0.518 0-0.938 0.42-0.938 0.938s0.42 0.938 0.938 0.938v0h7.29c0.811-0.001 1.542-0.345 2.056-0.894l0.001-0.002 4.127-4.429c0.17-0.184 0.413-0.298 0.682-0.298 0.002 0 0.003 0 0.005 0h-0c0.518 0 0.938 0.42 0.938 0.938v0c-0.001 0.211-0.072 0.406-0.191 0.561l0.002-0.002z"></path>
</symbol>
<symbol id="icon-home" viewBox="0 0 32 32">
<path  d="M30.219 8.686l-12-8c-0.622-0.426-1.392-0.68-2.221-0.68s-1.598 0.254-2.234 0.689l0.014-0.009-12 8c-1.078 0.719-1.778 1.931-1.778 3.305 0 0.003 0 0.006 0 0.009v-0.001 16c0.006 2.207 1.793 3.994 3.999 4h24.001c2.207-0.006 3.994-1.793 4-3.999v-16.001c0-0.004 0-0.008 0-0.013 0-1.376-0.701-2.588-1.766-3.299l-0.014-0.009zM28 28.005h-8v-10h-8v10h-8v-16l12-8 12 8z"></path>
</symbol>
<symbol id="icon-visibility" viewBox="0 0 32 32">
<path d="M16 6c-6.667 0-12.36 4.147-14.667 10 2.307 5.853 8 10 14.667 10s12.36-4.147 14.667-10c-2.307-5.853-8-10-14.667-10zM16 22.667c-3.68 0-6.667-2.987-6.667-6.667s2.987-6.667 6.667-6.667 6.667 2.987 6.667 6.667-2.987 6.667-6.667 6.667zM16 12c-2.213 0-4 1.787-4 4s1.787 4 4 4 4-1.787 4-4-1.787-4-4-4z"></path>
</symbol>
<symbol id="icon-hand" viewBox="0 0 32 32">
<path  d="M14.706 21.704c0.113-0.113 0.183-0.27 0.183-0.442 0-0.345-0.28-0.625-0.625-0.625s-0.625 0.28-0.625 0.625c0 0.173 0.070 0.329 0.183 0.442v0c0.113 0.113 0.269 0.183 0.442 0.183s0.329-0.070 0.442-0.183l-0 0z"></path>
<path  d="M11.747 6.873c0 3.796 3.077 6.873 6.873 6.873s6.873-3.077 6.873-6.873c0-3.796-3.077-6.873-6.873-6.873-0.001 0-0.002 0-0.002 0h0c-3.793 0.006-6.866 3.080-6.871 6.872v0zM24.243 6.873c0 0 0 0 0 0.001 0 3.106-2.518 5.624-5.624 5.624s-5.624-2.518-5.624-5.624c0-3.105 2.517-5.622 5.621-5.624h0c3.105 0.003 5.622 2.518 5.626 5.622v0z"></path>
<path  d="M7.197 31.816c0.113 0.114 0.27 0.185 0.443 0.185 0.171 0 0.325-0.069 0.438-0.18l-0 0 3.029-2.984c0.338-0.341 0.547-0.811 0.547-1.329 0-0.218-0.037-0.428-0.105-0.623l0.004 0.013 0.651-0.628c0.335-0.325 0.793-0.526 1.297-0.526 0.001 0 0.003 0 0.004 0h8.305c0.003 0 0.007 0 0.011 0 1.523 0 2.903-0.608 3.912-1.595l-0.001 0.001c0.044-0.042-0.33 0.397 5.667-6.77 0.372-0.434 0.598-1.001 0.598-1.622 0-1.38-1.119-2.499-2.499-2.499-0.76 0-1.44 0.339-1.899 0.874l-0.003 0.003-3.687 3.788c-0.462-0.567-1.16-0.927-1.942-0.93h-6.967c-0.919-0.395-1.988-0.625-3.111-0.625-0.006 0-0.012 0-0.019 0h0.001c-0.082-0.003-0.178-0.005-0.274-0.005-2.901 0-5.429 1.598-6.751 3.962l-0.020 0.039c-0.104-0.021-0.223-0.032-0.346-0.032-0.518 0-0.987 0.211-1.325 0.552l-0 0-2.971 2.981c-0.113 0.113-0.182 0.269-0.182 0.441s0.070 0.328 0.182 0.441l-0-0zM11.872 17.621c0.004 0 0.008 0 0.012 0 0.99 0 1.93 0.211 2.779 0.59l-0.043-0.017c0.074 0.033 0.16 0.053 0.25 0.053h7.096c0.009-0 0.020-0 0.030-0 0.69 0 1.25 0.56 1.25 1.25s-0.56 1.25-1.25 1.25c-0.011 0-0.021-0-0.032-0l0.002 0h-5.095c-0.345 0-0.625 0.28-0.625 0.625s0.28 0.625 0.625 0.625h5.098c0.001 0 0.003 0 0.004 0 1.378 0 2.495-1.117 2.495-2.495 0-0.117-0.008-0.231-0.023-0.343l0.001 0.013c3.565-3.667 4.070-4.181 4.091-4.207 0.231-0.282 0.579-0.46 0.969-0.46 0.69 0 1.25 0.56 1.25 1.25 0 0.317-0.118 0.606-0.312 0.826l0.001-0.001-5.604 6.7c-0.781 0.754-1.846 1.218-3.019 1.218-0.003 0-0.007 0-0.010 0h-8.306c-0.002 0-0.004 0-0.007 0-0.841 0-1.603 0.334-2.163 0.876l-0.53 0.512-4.895-4.894c1.115-2.025 3.235-3.374 5.67-3.374 0.102 0 0.204 0.002 0.305 0.007l-0.014-0.001zM4.039 21.767c0.113-0.113 0.269-0.184 0.442-0.184 0.123 0 0.238 0.036 0.335 0.097l-0.003-0.002c0.108 0.066-0.203-0.217 5.412 5.39 0.112 0.113 0.181 0.269 0.181 0.44s-0.069 0.327-0.181 0.44l0-0-2.576 2.544-6.14-6.187z"></path>
<path  d="M17.87 3.124v0.732c-0.73 0.267-1.242 0.956-1.242 1.765 0 1.033 0.835 1.87 1.866 1.875h0c0.345 0 0.625 0.28 0.625 0.625s-0.28 0.625-0.625 0.625v0c-0.336-0.034-0.625-0.212-0.809-0.469l-0.002-0.003c-0.115-0.137-0.287-0.223-0.478-0.223-0.345 0-0.625 0.28-0.625 0.625 0 0.154 0.055 0.294 0.147 0.403l-0.001-0.001c0.295 0.366 0.682 0.648 1.125 0.811l0.018 0.006v0.729c0 0.345 0.28 0.625 0.625 0.625s0.625-0.28 0.625-0.625v0-0.733c0.73-0.267 1.242-0.956 1.242-1.765 0-1.033-0.835-1.87-1.866-1.875h-0c-0.345 0-0.625-0.28-0.625-0.625s0.28-0.625 0.625-0.625v0c0.269 0.019 0.506 0.141 0.675 0.326l0.001 0.001c0.112 0.109 0.266 0.176 0.434 0.176 0.345 0 0.625-0.28 0.625-0.625 0-0.176-0.073-0.335-0.19-0.449l-0-0c-0.252-0.252-0.56-0.449-0.903-0.57l-0.017-0.005v-0.728c0-0.345-0.28-0.625-0.625-0.625s-0.625 0.28-0.625 0.625v0z"></path>
</symbol>
<symbol id="icon-angle-right" viewBox="0 0 10 32">
<path  d="M10.625 17.143c0 0.143-0.072 0.304-0.178 0.41l-8.321 8.321c-0.107 0.107-0.267 0.178-0.41 0.178s-0.304-0.072-0.41-0.178l-0.893-0.893c-0.107-0.107-0.178-0.25-0.178-0.41 0-0.143 0.072-0.304 0.178-0.41l7.018-7.018-7.018-7.018c-0.107-0.107-0.178-0.267-0.178-0.41s0.072-0.304 0.178-0.41l0.893-0.893c0.107-0.107 0.267-0.178 0.41-0.178s0.304 0.072 0.41 0.178l8.321 8.321c0.107 0.107 0.178 0.267 0.178 0.41z"></path>
</symbol>
<symbol id="icon-angle-down" viewBox="0 0 21 32">
<path d="M19.197 13.143c0 0.143-0.072 0.304-0.178 0.41l-8.321 8.321c-0.107 0.107-0.267 0.178-0.41 0.178s-0.304-0.072-0.41-0.178l-8.321-8.321c-0.107-0.107-0.178-0.267-0.178-0.41s0.072-0.304 0.178-0.41l0.893-0.893c0.107-0.107 0.25-0.178 0.41-0.178 0.143 0 0.304 0.072 0.41 0.178l7.018 7.018 7.018-7.018c0.107-0.107 0.267-0.178 0.41-0.178s0.304 0.072 0.41 0.178l0.893 0.893c0.107 0.107 0.178 0.267 0.178 0.41z"></path>
</symbol>
<symbol id="icon-unvisibility" viewBox="0 0 32 32">
<path d="M16 9.333c3.68 0 6.667 2.987 6.667 6.667 0 0.867-0.173 1.68-0.48 2.44l3.893 3.893c2.013-1.68 3.6-3.853 4.573-6.333-2.307-5.853-8-10-14.667-10-1.867 0-3.653 0.333-5.307 0.933l2.88 2.88c0.76-0.307 1.573-0.48 2.44-0.48zM2.667 5.693l3.653 3.653c-2.213 1.72-3.947 4.013-4.987 6.653 2.307 5.853 8 10 14.667 10 2.067 0 4.040-0.4 5.84-1.12l0.56 0.56 3.907 3.893 1.693-1.693-23.64-23.64-1.693 1.693zM10.040 13.067l2.067 2.067c-0.067 0.28-0.107 0.573-0.107 0.867 0 2.213 1.787 4 4 4 0.293 0 0.587-0.040 0.867-0.107l2.067 2.067c-0.893 0.44-1.88 0.707-2.933 0.707-3.68 0-6.667-2.987-6.667-6.667 0-1.053 0.267-2.040 0.707-2.933zM15.787 12.027l4.2 4.2 0.027-0.213c0-2.213-1.787-4-4-4l-0.227 0.013z"></path>
</symbol>
<symbol id="icon-location" viewBox="0 0 32 32">
<path  d="M16 0c-7.949 0.009-14.391 6.451-14.4 14.399v0.001c0 12.922 12.342 18.010 12.87 18.221 0.452 0.186 0.978 0.294 1.528 0.294s1.076-0.108 1.555-0.304l-0.027 0.010c0.528-0.211 12.87-5.296 12.87-18.221-0.009-7.949-6.451-14.391-14.399-14.4h-0.001zM16 28.8s-10.285-4.115-10.285-14.4c0-5.681 4.605-10.286 10.286-10.286s10.286 4.605 10.286 10.286v0c-0.003 10.285-10.288 14.4-10.288 14.4zM16 10.285c-2.273 0-4.115 1.842-4.115 4.115s1.842 4.115 4.115 4.115c2.273 0 4.115-1.842 4.115-4.115v0c0-2.273-1.842-4.115-4.115-4.115v0z"></path>
</symbol>
<symbol id="icon-menu" viewBox="0 0 32 32">
<path d="M29.333 8h-26.667c-1.473 0-2.667-1.194-2.667-2.667v0 0c0-1.473 1.194-2.667 2.667-2.667v0h26.667c1.473 0 2.667 1.194 2.667 2.667v0 0c0 1.473-1.194 2.667-2.667 2.667v0zM29.333 18.667h-26.667c-1.473 0-2.667-1.194-2.667-2.667v0 0c0-1.473 1.194-2.667 2.667-2.667v0h26.667c1.473 0 2.667 1.194 2.667 2.667v0 0c0 1.473-1.194 2.667-2.667 2.667v0zM29.333 29.333h-26.667c-1.473 0-2.667-1.194-2.667-2.667v0 0c0-1.473 1.194-2.667 2.667-2.667v0h26.667c1.473 0 2.667 1.194 2.667 2.667v0 0c0 1.473-1.194 2.667-2.667 2.667v0z"></path>
</symbol>
<symbol id="icon-notifications" viewBox="0 0 32 32">
<path d="M16 29.333c1.467 0 2.667-1.2 2.667-2.667h-5.333c0 1.467 1.2 2.667 2.667 2.667zM24 21.333v-6.667c0-4.093-2.173-7.52-6-8.427v-0.907c0-1.107-0.893-2-2-2s-2 0.893-2 2v0.907c-3.813 0.907-6 4.32-6 8.427v6.667l-2.667 2.667v1.333h21.333v-1.333l-2.667-2.667zM21.333 22.667h-10.667v-8c0-3.307 2.013-6 5.333-6s5.333 2.693 5.333 6v8z"></path>
</symbol>
<symbol id="icon-terms" viewBox="0 0 27 32">
<path d="M26.215 6.786c0.7 0.779 1.15 1.795 1.214 2.915l0.001 0.013v20.571c0 0.947-0.767 1.714-1.714 1.714v0h-24c-0.947 0-1.714-0.767-1.714-1.714v0-28.571c0-0.947 0.767-1.714 1.714-1.714v0h16c1.132 0.065 2.149 0.514 2.932 1.218l-0.004-0.004zM18.287 2.429v6.714h6.714c-0.091-0.281-0.225-0.525-0.397-0.737l0.003 0.004-5.59-5.59c-0.208-0.168-0.451-0.302-0.715-0.389l-0.016-0.005zM25.144 29.714v-18.286h-7.429c-0.947 0-1.714-0.768-1.714-1.714v0-7.429h-13.714v27.429z"></path>
</symbol>
<symbol id="icon-paper" viewBox="0 0 32 32">
<path d="M20.134 24h-8c-1.104-0.001-1.998-0.895-1.999-1.999v-0c0.001-1.104 0.897-1.999 2.001-1.999 0 0 0 0 0 0h8c1.105 0 2.001 0.896 2.001 2.001v0 0c-0.002 1.103-0.897 1.997-2.001 1.997-0.001 0-0.002 0-0.002 0h0zM20.134 18.001h-8c-1.104-0.001-1.998-0.895-1.999-1.999v-0c0.001-1.104 0.897-1.999 2.001-1.999 0 0 0 0 0 0h8c1.105 0 2.001 0.896 2.001 2.001v0 0c-0.002 1.103-0.897 1.997-2.001 1.997-0.001 0-0.002 0-0.002 0h0zM20.134 0.002h-13.999c-2.206 0.006-3.994 1.792-4.002 3.997v24.001c0.007 2.206 1.794 3.993 3.999 4h20.001c2.206-0.007 3.993-1.794 4-3.999v-18.002c0-5.522-4.477-9.999-9.999-9.999v0zM26.135 28.002h-20v-24h10.001v10.001h10.001zM20.137 10.003v-5.999c3.309 0.011 5.989 2.691 5.999 6v0.001z"></path>
</symbol>
<symbol id="icon-profile" viewBox="0 0 32 32">
<path d="M31.79 26.686c-1.603-4.188-4.773-7.471-8.775-9.186l-0.105-0.040c2.163-1.786 3.539-4.46 3.566-7.455l0-0.005c-0.086-5.211-4.096-9.459-9.199-9.921l-0.039-0.003c-0.369-0.048-0.796-0.076-1.23-0.076s-0.861 0.028-1.28 0.081l0.050-0.005c-5.139 0.468-9.145 4.715-9.23 9.916l-0 0.008c0.026 3 1.402 5.674 3.549 7.447l0.017 0.013c-4.108 1.754-7.278 5.037-8.845 9.115l-0.037 0.111c-0.146 0.391-0.231 0.843-0.231 1.315 0 0.874 0.29 1.68 0.78 2.327l-0.007-0.010c0.784 1.026 2.009 1.682 3.386 1.682 0.010 0 0.021-0 0.031-0h23.656c0.008 0 0.018 0 0.028 0 1.377 0 2.601-0.656 3.376-1.672l0.008-0.010c0.478-0.634 0.766-1.436 0.766-2.304 0-0.477-0.087-0.933-0.245-1.354l0.009 0.027zM9.734 10c0.059-3.155 2.51-5.719 5.611-5.959l0.021-0.001c0.195-0.025 0.42-0.040 0.649-0.040s0.454 0.015 0.675 0.043l-0.026-0.003c2.908 0.458 5.106 2.947 5.106 5.949 0 3.324-2.694 6.018-6.018 6.018-3.32 0-6.011-2.688-6.018-6.006v-0.001zM4.186 28c1.935-4.728 6.5-7.999 11.829-7.999s9.894 3.27 11.798 7.914l0.031 0.085h-23.654z"></path>
</symbol>
<symbol id="icon-search" viewBox="0 0 32 32">
<path d="M31.428 28.566l-9.652-9.698c1.367-1.921 2.186-4.316 2.186-6.902 0-6.621-5.368-11.989-11.989-11.989s-11.989 5.368-11.989 11.989c0 6.621 5.368 11.989 11.989 11.989 2.621 0 5.045-0.841 7.018-2.268l-0.035 0.024 9.652 9.698c0.364 0.369 0.869 0.598 1.428 0.598 1.106 0 2.003-0.897 2.003-2.003 0-0.564-0.233-1.074-0.609-1.438l-0-0zM12.012 19.933c-0.013 0-0.028 0-0.043 0-4.443 0-8.044-3.601-8.044-8.044s3.601-8.044 8.044-8.044c4.443 0 8.044 3.601 8.044 8.044v0c0 0 0 0 0 0 0 4.428-3.578 8.020-8 8.044h-0.002z"></path>
</symbol>
<symbol id="icon-wallet" viewBox="0 0 32 32">
<path d="M28 10v-8h-22c-3.314 0-6 2.686-6 6v0 18c0.007 2.206 1.794 3.993 3.999 4h24.001c2.206-0.007 3.993-1.794 4-3.999v-16.001zM6 6h18v4h-18c-1.105 0-2-0.895-2-2s0.895-2 2-2v0zM28 26h-24v-12h24zM22 22c1.105 0 2-0.895 2-2s-0.895-2-2-2c-1.105 0-2 0.895-2 2v0c0 1.105 0.895 2 2 2v0z"></path>
</symbol>
</defs>
</svg>
